<svg xmlns="http://www.w3.org/2000/svg" xmlns:xlink="http://www.w3.org/1999/xlink" version="1.1" x="0px" y="0px" viewBox="0 0 100 125" style="enable-background:new 0 0 100 100;" xml:space="preserve"><path d="M52.554512,51.8461914c-0.9957275-3.4490967-3.0370483-6.4295044-5.7669067-8.586853  c0.2008667-0.1659546,0.4065552-0.3254395,0.6012573-0.4990845l11.4049072,1.4921875  c0.0654297,0.0087891,0.1308594,0.0126953,0.1962891,0.0126953c0.7421875,0,1.3867188-0.5498047,1.4853516-1.3051758  c0.1074219-0.8217773-0.4716797-1.574707-1.2929688-1.6821289l-9.2756348-1.2136841  c0.3947754-0.5012817,0.7658691-1.0210571,1.116272-1.5595093l8.1593628-1.067627  c0.8212891-0.1074219,1.4003906-0.8603516,1.2929688-1.6821289c-0.1074219-0.8212891-0.8632813-1.4057617-1.6816406-1.2924805  l-6.0222168,0.7879028c0.3466797-0.8181763,0.6312256-1.6488037,0.8551636-2.4882202l2.4854126-0.4144287  c1.0097656-0.168457,1.8681641-0.8242188,2.2949219-1.7543945c0.4277344-0.9316406,0.3652344-2.0117188-0.1660156-2.8896484  c-1.8841553-3.1088257-3.6588745-5.3690186-5.3098755-6.776001c-1.4859009-3.7385864-4.1583862-6.9847412-7.822937-9.0462646  c-4.2583008-2.3964844-9.277832-3.6630859-14.5146484-3.6630859c-5.2373047,0-10.2568359,1.2666016-14.5151367,3.6630859  c-3.6638803,2.0614014-6.3361826,5.307312-7.8222666,9.0455933c-1.6514282,1.4070435-3.4260864,3.6677246-5.3100586,6.7771606  c-0.5317383,0.878418-0.59375,1.9584961-0.1655273,2.8901367c0.4267578,0.9296875,1.284668,1.5854492,2.2949219,1.753418  l2.484436,0.4143066c0.223877,0.8394775,0.5084839,1.670166,0.8551636,2.4883423l-6.0217285-0.7879028  c-0.8291016-0.1083984-1.574707,0.4707031-1.6821289,1.2924805s0.4711913,1.574707,1.2924805,1.6821289l8.1598511,1.067627  c0.3504028,0.5384521,0.7215576,1.0582886,1.116272,1.5595093l-9.276123,1.2136841  c-0.8212891,0.1074219-1.3999023,0.8603516-1.2924805,1.6821289c0.0986328,0.7553711,0.7436523,1.3051758,1.4853516,1.3051758  c0.0649414,0,0.1303711-0.0039063,0.1967773-0.0126953l11.40448-1.4921875  c0.1948242,0.1737061,0.4005737,0.333252,0.6015015,0.4992676c-2.7294922,2.1573486-4.7705078,5.1376343-5.7662354,8.5866699  c-1.2483521,4.3237915-1.8787231,8.6776733-1.8974609,13.0321655c-2.8556519,4.0239868-4.5415039,8.9335327-4.5415039,14.2324829  v2.25c0,3.5839844,2.9160156,6.5,6.5,6.5h0.4501343c0.2877197,2.2059326,2.1583252,3.9208984,4.4414673,3.9208984h6.5405283  c2.2831421,0,4.1537476-1.7149658,4.4414673-3.9208984h12.0511475c0.2877197,2.2059326,2.1583252,3.9208984,4.4414673,3.9208984  h6.5410156c2.2831421,0,4.1537476-1.7149658,4.4414673-3.9208984h0.4501343c3.5839844,0,6.5-2.9160156,6.5-6.5v-2.25  c0-5.2992554-1.6860352-10.2090454-4.5419312-14.2331543C54.4324417,60.5236816,53.8024368,56.1700439,52.554512,51.8461914z   M11.3157415,34.4345703c-0.1672363-0.3694458-0.3081055-0.7446899-0.4448853-1.1204834l4.8599243,0.8104248  c0.0834961,0.0141602,0.1665039,0.0205078,0.2485352,0.0205078c0.7197275,0,1.3554697-0.5195313,1.47754-1.253418  c0.1362305-0.8168945-0.4155273-1.5898438-1.2329102-1.7260742L5.5686712,29.3886719c0,0-0.0561523-0.1303711-0.0566406-0.1303711  c3.0571289-5.0458984,5.3891602-6.9536133,6.4570313-7.0537109c0.8251953-0.0776367,1.4306641-0.809082,1.3535156-1.6337891  c-0.0531616-0.5656738-0.4226074-1.0210571-0.9089966-1.2312012c1.2733154-1.9661865,3.005249-3.6452637,5.13556-4.8439941  c3.8105469-2.144043,8.3212891-3.2773438,13.0444336-3.2773438c4.7226563,0,9.2333984,1.1333008,13.0439453,3.2773438  c2.1300659,1.1984863,3.8618774,2.8772583,5.1352539,4.8430176c-0.4899902,0.2090454-0.8539429,0.6641846-0.9077148,1.2316895  c-0.078125,0.8251953,0.5283203,1.5566406,1.3525391,1.6342773c1.0683594,0.1000977,3.3994141,2.0078125,6.4570313,7.0537109  l-0.0566406,0.1303711l-10.6552734,1.7768555c-0.8173828,0.1362305-1.3691406,0.9091797-1.2329102,1.7260742  c0.1220703,0.7338867,0.7578125,1.253418,1.4775391,1.253418c0.0820313,0,0.1650391-0.0063477,0.2485352-0.0205078  l4.8608398-0.8104858c-0.1367798,0.3758545-0.2776489,0.7510376-0.4448242,1.1205444  c-2.0527344,4.5336914-5.8334961,8.0180664-10.375,9.5600586c-2.1328125,0.7241211-4.3712158,1.1748047-6.6776733,1.3518066  l0.3363037-0.451355c0.1907349-0.2578735,0.2205811-0.6011353,0.0779419-0.8880005  c-0.1442261-0.2877197-0.4377441-0.4685059-0.7594604-0.4685059h-3.7610474c-0.3217163,0-0.6152344,0.1807861-0.7594604,0.4685059  c-0.1426392,0.2868652-0.112793,0.630127,0.0778809,0.8880005l0.3363037,0.451355  c-2.3065796-0.177002-4.5449829-0.6276855-6.6774292-1.3518066C17.148262,42.4526367,13.3670111,38.9682617,11.3157415,34.4345703z   M9.9431829,83.3364258c-0.286438,0.4776611-0.501709,0.991272-0.6459961,1.5244141H8.6941595c-1.9296875,0-3.5-1.5703125-3.5-3.5  v-2.25c0-3.1071777,0.6627808-6.0609131,1.8463745-8.7346802c0.3040771,2.6509399,0.8317871,5.2974854,1.5925903,7.9329224  c0.3476563,1.2041016,0.828125,2.3710938,1.4287109,3.4697266C10.3054876,82.2241211,10.261054,82.8071289,9.9431829,83.3364258z   M49.670723,77.4770508c-0.2871094,0.9951172-0.6826172,1.9580078-1.1777344,2.8623047  c-0.7597656,1.390625-0.6933594,3.0878906,0.1777344,4.5400391c0.28125,0.4697266,0.4306641,1.0078125,0.4306641,1.5556641  v0.8466797c0,0.8271484-0.6728516,1.5-1.5,1.5h-6.5410156c-0.8271484,0-1.5-0.6728516-1.5-1.5v-0.8466797  c0-0.7460938,0.2851563-1.4726563,0.8027344-2.0478516c0.2480469-0.2753906,0.3852539-0.6337891,0.3852539-1.0039063V67.1508789  c0-0.828125-0.6713867-1.5-1.5-1.5s-1.5,0.671875-1.5,1.5v15.7011719c-0.4490967,0.6088257-0.762085,1.2927246-0.9586182,2.0087891  H24.3970413c-0.1964111-0.7161255-0.5093384-1.3998413-0.958252-2.0087891V67.1508789c0-0.828125-0.6713867-1.5-1.5-1.5  s-1.5,0.671875-1.5,1.5v16.2324219c0,0.3701172,0.137207,0.7285156,0.3852539,1.0039063  c0.5170898,0.5742188,0.8022461,1.3017578,0.8022461,2.0478516v0.8466797c0,0.8271484-0.6728516,1.5-1.5,1.5h-6.5405283  c-0.8271484,0-1.5-0.6728516-1.5-1.5v-0.8466797c0-0.5478516,0.1489258-1.0859375,0.4301758-1.5556641  c0.871582-1.4521484,0.9379883-3.1494141,0.1782227-4.5400391c-0.4956055-0.90625-0.8920898-1.8691406-1.1787109-2.8623047  c-2.3754883-8.2275391-2.3754883-16.5712891-0.0004883-24.7988281c0.9035645-3.1287842,2.8588867-5.7782593,5.458436-7.5772095  c1.1853638,0.7039795,2.4406738,1.2891235,3.7520142,1.734436c3.1240234,1.0605469,6.4443359,1.5986328,9.8681641,1.5986328  c3.4233398,0,6.7431641-0.5380859,9.8681641-1.5986328c1.3112183-0.4451904,2.5664063-1.0303955,3.75177-1.734375  c2.5997925,1.7991333,4.5552979,4.4486084,5.4581909,7.5771484C52.0466995,60.9057617,52.0466995,69.2495117,49.670723,77.4770508z   M55.9929886,81.3608398c0,1.9296875-1.5703125,3.5-3.5,3.5H51.889534  c-0.1444702-0.5328369-0.3599854-1.0464478-0.6465454-1.5244141c-0.3173828-0.5292969-0.3613281-1.1113281-0.1171875-1.5576172  c0.5996094-1.0976563,1.0800781-2.2646484,1.4277344-3.4697266c0.7608032-2.6356201,1.2885742-5.2825317,1.5927124-7.9337769  c1.1838379,2.6740112,1.8467407,5.6280518,1.8467407,8.7355347V81.3608398z M35.6008987,41.1118164  c0.6938477-1.6738281,2.1733398-2.8623047,3.9575195-3.1782227l5.4443359-0.9643555  c0.8164063-0.1430664,1.5947266,0.3999023,1.7382813,1.215332c0.1445313,0.815918-0.3994141,1.5942383-1.2148438,1.7387695  l-5.4443359,0.9643555c-0.7709961,0.1362305-1.409668,0.6494141-1.7094727,1.3725586  c-0.2392578,0.5776367-0.7978516,0.9262695-1.3862305,0.9262695c-0.1914063,0-0.3857422-0.0371094-0.5737305-0.1147461  C35.6472855,42.7543945,35.2840042,41.8769531,35.6008987,41.1118164z M15.6609564,39.9233398  c-0.8154297-0.1445313-1.3598633-0.9228516-1.215332-1.7387695c0.144043-0.815918,0.9233398-1.3613281,1.7387705-1.215332  l5.4443359,0.9643555c1.7841797,0.315918,3.2636719,1.5043945,3.9575195,3.1782227  c0.3168945,0.7651367-0.0463867,1.6425781-0.8115234,1.9599609c-0.1875,0.0776367-0.3823242,0.1147461-0.5737305,0.1147461  c-0.5883789,0-1.1469727-0.3486328-1.3862305-0.9262695c-0.2998047-0.7231445-0.9384766-1.2363281-1.7094727-1.3725586  L15.6609564,39.9233398z M72.7195511,61.5688477c0,0.828125-0.671875,1.5-1.5,1.5h-10  c-0.6064453,0-1.1533203-0.3652344-1.3857422-0.9257813s-0.1035156-1.2060547,0.3251953-1.6347656l7.4394531-7.4394531h-5.8134766  c-0.828125,0-1.5-0.6713867-1.5-1.5s0.671875-1.5,1.5-1.5h9.4345703c0.6064453,0,1.1533203,0.3652344,1.3857422,0.9257813  s0.1035156,1.2060547-0.3251953,1.6347656l-7.4394531,7.4394531h6.3789063  C72.0476761,60.0688477,72.7195511,60.7407227,72.7195511,61.5688477z M85.7810745,67.4926758c0,0.828125-0.671875,1.5-1.5,1.5  h-7.8974609c-0.6064453,0-1.1533203-0.3652344-1.3857422-0.9257813s-0.1035156-1.2060547,0.3251953-1.6347656l5.3359375-5.3359375  h-3.828125c-0.828125,0-1.5-0.671875-1.5-1.5s0.671875-1.5,1.5-1.5h7.4501953c0.6064453,0,1.1533203,0.3652344,1.3857422,0.9257813  s0.1035156,1.2060547-0.3251953,1.6347656l-5.3359375,5.3359375h4.2753906  C85.1091995,65.9926758,85.7810745,66.6645508,85.7810745,67.4926758z M99.3015823,63.4125977c0,0.828125-0.671875,1.5-1.5,1.5  h-6.7119141c-0.6064453,0-1.1533203-0.3652344-1.3857422-0.9257813s-0.1035156-1.2060547,0.3251953-1.6347656l4.1513672-4.1513672  h-2.7109375c-0.828125,0-1.5-0.671875-1.5-1.5s0.671875-1.5,1.5-1.5h6.3320313c0.6064453,0,1.1533203,0.3652344,1.3857422,0.9257813  s0.1035156,1.2060547-0.3251953,1.6347656l-4.1513672,4.1513672h3.0908203  C98.6297073,61.9125977,99.3015823,62.5844727,99.3015823,63.4125977z"/><text x="0" y="115" fill="#000000" font-size="5px" font-weight="bold" font-family="'Helvetica Neue', Helvetica, Arial-Unicode, Arial, Sans-serif">Created by Llisole</text><text x="0" y="120" fill="#000000" font-size="5px" font-weight="bold" font-family="'Helvetica Neue', Helvetica, Arial-Unicode, Arial, Sans-serif">from the Noun Project</text></svg>